#N canvas 267 95 777 897 12;
#X obj 82 53 inlet;
#X obj 122 205 osc~;
#X obj 121 543 *~;
#X msg 195 330 0;
#X obj 163 415 pack f \$2;
#X obj 195 302 del \$2;
#X obj 195 360 pack f \$3;
#X obj 121 817 throw~ synthL;
#X obj 266 816 throw~ synthR;
#X obj 283 728 cos;
#X obj 50 189 s \$0-pan;
#X obj 283 700 r \$0-pan;
#X obj 177 699 r \$0-pan;
#X obj 177 727 sin;
#X obj 122 784 *~;
#X obj 265 782 *~;
#X obj 122 170 mtof;
#X obj 82 78 unpack f f f;
#X text 185 78 bal / midi / rms;
#X obj 163 256 t f b;
#X obj 121 618 *~ 0.05;
#X text 37 20 synth-voice~.pd;
#X obj 195 467 line~;
#X text 270 360 0 \, decay;
#X text 236 415 rms \, attack;
#X connect 0 0 17 0;
#X connect 1 0 2 0;
#X connect 2 0 20 0;
#X connect 3 0 6 0;
#X connect 4 0 22 0;
#X connect 5 0 3 0;
#X connect 6 0 22 0;
#X connect 9 0 15 1;
#X connect 11 0 9 0;
#X connect 12 0 13 0;
#X connect 13 0 14 1;
#X connect 14 0 7 0;
#X connect 15 0 8 0;
#X connect 16 0 1 0;
#X connect 17 0 10 0;
#X connect 17 1 16 0;
#X connect 17 2 19 0;
#X connect 19 0 4 0;
#X connect 19 1 5 0;
#X connect 20 0 14 0;
#X connect 20 0 15 0;
#X connect 22 0 2 1;
