#N canvas 155 211 777 659 12;
#X obj 71 53 inlet;
#X text 119 54 midi val;
#X obj 67 209 osc~;
#X obj 81 128 mtof;
#X obj 65 379 *~;
#X msg 163 155 1;
#X msg 286 242 0;
#X obj 170 209 pack f \$2;
#X obj 172 256 line~;
#X obj 273 192 del \$2;
#X obj 293 296 pack f \$3;
#X obj 107 595 throw~ synthL;
#X obj 318 601 throw~ synthR;
#X obj 233 523 cos;
#X obj 218 110 s \$0-pan;
#X obj 71 78 t f b b f;
#X obj 233 495 r \$0-pan;
#X obj 197 418 r \$0-pan;
#X obj 197 446 sin;
#X obj 109 524 *~;
#X obj 222 76 / 127;
#X obj 206 559 *~;
#X obj 65 404 *~ 0.1;
#X connect 0 0 15 0;
#X connect 2 0 4 0;
#X connect 3 0 2 0;
#X connect 4 0 22 0;
#X connect 5 0 7 0;
#X connect 6 0 10 0;
#X connect 7 0 8 0;
#X connect 8 0 4 1;
#X connect 9 0 6 0;
#X connect 10 0 8 0;
#X connect 13 0 21 1;
#X connect 15 0 3 0;
#X connect 15 1 5 0;
#X connect 15 2 9 0;
#X connect 15 3 20 0;
#X connect 16 0 13 0;
#X connect 17 0 18 0;
#X connect 18 0 19 1;
#X connect 19 0 11 0;
#X connect 20 0 14 0;
#X connect 21 0 12 0;
#X connect 22 0 19 0;
#X connect 22 0 21 0;
